<svg xmlns="http://www.w3.org/2000/svg" xmlns:xlink="http://www.w3.org/1999/xlink" viewBox="0 0 113.83 120.13"><defs><style>.cls-1{fill:url(#linear-gradient);}.cls-2{fill:url(#linear-gradient-2);}</style><linearGradient id="linear-gradient" x1="11.01" y1="99.09" x2="102.74" y2="7.36" gradientUnits="userSpaceOnUse"><stop offset="0.01" stop-color="#b78628"/><stop offset="0.26" stop-color="#c69320"/><stop offset="0.51" stop-color="#dba514"/><stop offset="0.73" stop-color="#eeb609"/><stop offset="1" stop-color="#facc6b"/><stop offset="1" stop-color="#d3a83c"/><stop offset="1" stop-color="#fcc201"/></linearGradient><linearGradient id="linear-gradient-2" x1="44.53" y1="29.81" x2="69.24" y2="5.1" xlink:href="#linear-gradient"/></defs><title>Kengram Brandmark symbol - Gradient Gold</title><g id="Layer_2" data-name="Layer 2"><g id="Layer_1-2" data-name="Layer 1"><path class="cls-1" d="M48.61,59c-8.32-13.68-23.2-16.35-35.13-23.54-1.82-1.1-2.62-.52-2.62,1.5,0,14.69,0,29.37.17,44.06a7,7,0,0,0,3.81,6.16c11.9,6.1,23.85,12.11,36.66,18.59,0-11.53,0-22.17,0-32.82.06-16.61,7.56-28.73,22.28-36.31,11.77-6.07,23.66-11.9,35.44-18,3.06-1.58,4.64-2.23,4.59,2.46-.19,19.52,0,39-.11,58.57-.05,8.21-3.79,14.3-11.32,18-11.34,5.62-22.61,11.39-34.74,17.51,0-3.38.17-6,0-8.58-.23-2.75.92-4.14,3.34-5.32,8.69-4.22,17.2-8.8,25.91-13,4.27-2.05,6.09-5.2,6.07-9.77,0-13.43-.11-26.87,0-40.3,0-3.75-1.05-3.75-3.92-2.25-7.29,3.83-14.84,7.17-22,11.21C67.61,52.5,62.48,60.8,62.34,71.74c-.17,14,0,27.94,0,41.91,0,5.83-3.43,8-8.62,5.39-14.22-7.16-28.4-14.41-42.62-21.56C4,93.91.21,88.08.13,80.33-.08,60.45.12,40.56,0,20.68c0-3.63,1-3.9,4-2.37C16.86,25,29.92,31.26,42.73,38,53.8,43.9,54.26,46,48.61,59Z"/><path class="cls-2" d="M65.75,2.42A17.47,17.47,0,0,1,48,32.51,17.44,17.44,0,0,1,42,8.63,17.27,17.27,0,0,1,65.75,2.42Z"/></g></g></svg>