<svg xmlns="http://www.w3.org/2000/svg" xmlns:xlink="http://www.w3.org/1999/xlink" viewBox="0 0 485.05 148.49"><defs><style>.cls-1{fill:url(#linear-gradient);}.cls-2{fill:url(#linear-gradient-2);}.cls-3{fill:url(#linear-gradient-3);}.cls-4{fill:url(#linear-gradient-4);}.cls-5{fill:url(#linear-gradient-5);}.cls-6{fill:url(#linear-gradient-6);}.cls-7{fill:url(#linear-gradient-7);}.cls-8{fill:url(#linear-gradient-8);}.cls-9{fill:url(#linear-gradient-9);}</style><linearGradient id="linear-gradient" x1="13.61" y1="122.49" x2="127" y2="9.1" gradientUnits="userSpaceOnUse"><stop offset="0.01" stop-color="#b78628"/><stop offset="0.26" stop-color="#c69320"/><stop offset="0.51" stop-color="#dba514"/><stop offset="0.73" stop-color="#eeb609"/><stop offset="1" stop-color="#facc6b"/><stop offset="1" stop-color="#d3a83c"/><stop offset="1" stop-color="#fcc201"/></linearGradient><linearGradient id="linear-gradient-2" x1="55.04" y1="36.85" x2="85.59" y2="6.3" xlink:href="#linear-gradient"/><linearGradient id="linear-gradient-3" x1="170.06" y1="69.25" x2="207.47" y2="69.25" xlink:href="#linear-gradient"/><linearGradient id="linear-gradient-4" x1="211.77" y1="78.85" x2="251.09" y2="78.85" xlink:href="#linear-gradient"/><linearGradient id="linear-gradient-5" x1="256.88" y1="79.06" x2="294.78" y2="79.06" xlink:href="#linear-gradient"/><linearGradient id="linear-gradient-6" x1="300.57" y1="87.71" x2="340.47" y2="87.71" xlink:href="#linear-gradient"/><linearGradient id="linear-gradient-7" x1="347.75" y1="79.68" x2="367.61" y2="79.68" xlink:href="#linear-gradient"/><linearGradient id="linear-gradient-8" x1="370.51" y1="79.06" x2="414.04" y2="79.06" xlink:href="#linear-gradient"/><linearGradient id="linear-gradient-9" x1="420.66" y1="79.06" x2="485.05" y2="79.06" xlink:href="#linear-gradient"/></defs><title>Kengram with Wordmark - Gradient Gold</title><g id="Layer_2" data-name="Layer 2"><g id="Layer_1-2" data-name="Layer 1"><path class="cls-1" d="M60.08,72.88C49.79,56,31.41,52.67,16.66,43.78c-2.25-1.36-3.24-.64-3.24,1.85,0,18.15,0,36.31.22,54.46a8.67,8.67,0,0,0,4.71,7.61c14.71,7.54,29.48,15,45.32,23,0-14.25,0-27.41,0-40.57C63.76,69.59,73,54.61,91.22,45.23,105.77,37.73,120.47,30.52,135,23c3.78-1.95,5.73-2.76,5.68,3-.23,24.13,0,48.27-.14,72.4-.07,10.14-4.69,17.68-14,22.28-14,6.95-28,14.08-42.94,21.64,0-4.18.21-7.41-.06-10.6-.29-3.4,1.14-5.12,4.13-6.57,10.74-5.22,21.27-10.88,32-16.06,5.27-2.54,7.52-6.42,7.51-12.08-.05-16.61-.14-33.21.06-49.82.05-4.63-1.3-4.64-4.84-2.78-9,4.74-18.34,8.87-27.2,13.85-11.67,6.57-18,16.82-18.18,30.34-.21,17.27,0,34.54-.06,51.81,0,7.2-4.24,9.89-10.65,6.66-17.58-8.85-35.1-17.81-52.69-26.65C4.9,116.09.26,108.88.16,99.29-.1,74.72.15,50.14,0,25.57c0-4.48,1.23-4.81,4.9-2.92C20.83,30.84,37,38.64,52.82,47,66.5,54.26,67.08,56.86,60.08,72.88Z"/><path class="cls-2" d="M81.28,3a21.59,21.59,0,0,1-21.92,37.2,21.56,21.56,0,0,1-7.47-29.52A21.35,21.35,0,0,1,81.28,3Z"/><path class="cls-3" d="M207.47,96.48a4.64,4.64,0,0,1-1.2,3.23,4.3,4.3,0,0,1-3.35,1.32,5.12,5.12,0,0,1-2.15-.46,5.64,5.64,0,0,1-1.66-1.12L179.17,80V96.48a4.63,4.63,0,0,1-1.2,3.23,4.9,4.9,0,0,1-6.7,0,4.63,4.63,0,0,1-1.2-3.23V42a4.63,4.63,0,0,1,1.2-3.23,4.9,4.9,0,0,1,6.7,0,4.64,4.64,0,0,1,1.2,3.23V77.28l19.45-19a6,6,0,0,1,1.57-1.12,4.58,4.58,0,0,1,2.07-.46A4.37,4.37,0,0,1,205.61,58a4.66,4.66,0,0,1,.75,5.13,5.79,5.79,0,0,1-1.12,1.61L193.65,75.54a2.48,2.48,0,0,1-.54.37,1.34,1.34,0,0,1-.54.21,1.23,1.23,0,0,1-.91-.33l-1-.91a1.23,1.23,0,0,0-.58-.33,2.49,2.49,0,0,0-.58-.08,1.1,1.1,0,0,0-.87.46,1.49,1.49,0,0,0-.37,1,1.12,1.12,0,0,0,.33.83l17.3,16.22A5.84,5.84,0,0,1,207,94.54,4.47,4.47,0,0,1,207.47,96.48Z"/><path class="cls-4" d="M251.09,90.28a4.63,4.63,0,0,1-1.24,3.15,22,22,0,0,1-7.16,5.26,21.42,21.42,0,0,1-9.15,1.94,21.7,21.7,0,0,1-8.61-1.7,20.92,20.92,0,0,1-6.87-4.68,22.57,22.57,0,0,1-4.59-7,21.84,21.84,0,0,1,0-16.88,22.57,22.57,0,0,1,4.59-7,20.94,20.94,0,0,1,6.87-4.68,21.7,21.7,0,0,1,8.61-1.7A21.42,21.42,0,0,1,242.69,59a22,22,0,0,1,7.16,5.26,4.64,4.64,0,0,1,1.24,3.15,4.83,4.83,0,0,1-.5,2.11,5.3,5.3,0,0,1-1.24,1.7L236.44,81.83a4.18,4.18,0,0,1-2.81,1.08,4.13,4.13,0,0,1-2.86-1.08,3.79,3.79,0,0,1-1.2-3,3.58,3.58,0,0,1,.5-1.94,6.19,6.19,0,0,1,1.16-1.37l10.84-8.94a1.2,1.2,0,0,0,.5-1.08,1.69,1.69,0,0,0-.33-.91,1.2,1.2,0,0,0-1.08-.5,1.72,1.72,0,0,0-1.08.5L238,66.36a.73.73,0,0,1-.41.21,2.53,2.53,0,0,1-.41,0h-.46a1.68,1.68,0,0,1-.54-.08,6.25,6.25,0,0,0-1.08-.25,11.06,11.06,0,0,0-1.49-.08,12.24,12.24,0,0,0-5,1A13.41,13.41,0,0,0,224.52,70a12.54,12.54,0,0,0,0,17.71,13.38,13.38,0,0,0,4.05,2.77A12.74,12.74,0,0,0,239,90.32a12.74,12.74,0,0,0,4.14-3.1,4.33,4.33,0,0,1,3.39-1.49,4.52,4.52,0,0,1,4.55,4.55Z"/><path class="cls-5" d="M294.78,96.48a4.64,4.64,0,0,1-1.2,3.23,4.9,4.9,0,0,1-6.7,0,4.63,4.63,0,0,1-1.2-3.23V75a9.59,9.59,0,0,0-2.73-7.16,10.76,10.76,0,0,0-14.23,0A9.59,9.59,0,0,0,266,75V96.48a4.63,4.63,0,0,1-1.2,3.23,4.9,4.9,0,0,1-6.7,0,4.63,4.63,0,0,1-1.2-3.23V75.21a18.63,18.63,0,0,1,1.41-7.37,16.91,16.91,0,0,1,3.93-5.71,17.79,17.79,0,0,1,6-3.72,22.55,22.55,0,0,1,15.23,0,17.8,17.8,0,0,1,6,3.72,17,17,0,0,1,3.93,5.71,18.66,18.66,0,0,1,1.41,7.37Z"/><path class="cls-6" d="M340.47,98.47a19,19,0,0,1-1.7,8.32,16,16,0,0,1-4.63,5.79,20.2,20.2,0,0,1-6.75,3.39,28.38,28.38,0,0,1-8,1.12,39.5,39.5,0,0,1-9.77-1.16,19.42,19.42,0,0,1-7.2-3.23,4.67,4.67,0,0,1-1.16-1.57,4.36,4.36,0,0,1-.41-1.82,4.44,4.44,0,0,1,1.24-3.14,4.22,4.22,0,0,1,3.23-1.32,4.41,4.41,0,0,1,2.81.91,12.14,12.14,0,0,0,5.09,2.52,26.46,26.46,0,0,0,6.17.7,16,16,0,0,0,5.79-.91,9.49,9.49,0,0,0,3.68-2.44,9.1,9.1,0,0,0,1.94-3.43,13.31,13.31,0,0,0,.58-3.89V96.23a1.41,1.41,0,0,0-2.81,0V98a1.41,1.41,0,0,1-1.41,1.41h-6A20.18,20.18,0,0,1,313,97.77a20.74,20.74,0,0,1-6.5-4.39,20,20,0,0,1-4.34-6.54,21.06,21.06,0,0,1,0-16,20,20,0,0,1,4.34-6.54,20.76,20.76,0,0,1,6.5-4.39,20.18,20.18,0,0,1,8.11-1.61h15.31a4,4,0,0,1,2.9,1.12,3.9,3.9,0,0,1,1.16,2.94Zm-9.1-32h-9a12.29,12.29,0,0,0-8.94,3.68,12,12,0,0,0-2.57,4,12.9,12.9,0,0,0,0,9.52,12,12,0,0,0,2.57,4,12.29,12.29,0,0,0,8.94,3.68h9Z"/><path class="cls-7" d="M367.61,62.39a3.9,3.9,0,0,1-1.16,2.94,4,4,0,0,1-2.9,1.12h-9.68a1.41,1.41,0,0,0,0,2.81h1.57a1.41,1.41,0,0,1,1.41,1.41V96.48a4.63,4.63,0,0,1-1.2,3.23,4.9,4.9,0,0,1-6.7,0,4.63,4.63,0,0,1-1.2-3.23V62.39a3.9,3.9,0,0,1,1.16-2.94,4,4,0,0,1,2.9-1.12h11.75a4,4,0,0,1,2.9,1.12A3.9,3.9,0,0,1,367.61,62.39Z"/><path class="cls-8" d="M414,96.48a4.64,4.64,0,0,1-1.2,3.23,4.9,4.9,0,0,1-6.7,0,4.63,4.63,0,0,1-1.2-3.23V94a1.41,1.41,0,0,0-2.81,0v2.81a1.43,1.43,0,0,1-.66,1.16,14.14,14.14,0,0,1-4.39,1.9,21.29,21.29,0,0,1-5.63.74,20,20,0,0,1-8.32-1.74,20.7,20.7,0,0,1-6.62-4.68,22.41,22.41,0,0,1-6-15.35,21.25,21.25,0,0,1,1.7-8.44,22.57,22.57,0,0,1,4.59-7,20.94,20.94,0,0,1,6.87-4.68,22.58,22.58,0,0,1,17.17,0,20.84,20.84,0,0,1,6.91,4.68,22.61,22.61,0,0,1,4.59,7,21.27,21.27,0,0,1,1.7,8.44Zm-9.1-17.63A12.44,12.44,0,0,0,404,74a12.74,12.74,0,0,0-2.65-4,12.92,12.92,0,0,0-4-2.77,12.84,12.84,0,0,0-10.1,0,12.9,12.9,0,0,0-4,2.77,12.71,12.71,0,0,0-2.65,4,12.8,12.8,0,0,0,0,9.68,12.69,12.69,0,0,0,2.65,4,12.87,12.87,0,0,0,4,2.77,12.84,12.84,0,0,0,10.1,0,12.89,12.89,0,0,0,4-2.77,12.73,12.73,0,0,0,2.65-4A12.43,12.43,0,0,0,404.94,78.85Z"/><path class="cls-9" d="M485,96.48a4.64,4.64,0,0,1-1.2,3.23,4.9,4.9,0,0,1-6.7,0,4.63,4.63,0,0,1-1.2-3.23v-22a9.33,9.33,0,0,0-.7-3.6,9,9,0,0,0-1.94-2.94,9.54,9.54,0,0,0-2.94-2,9.06,9.06,0,0,0-3.68-.75,8.85,8.85,0,0,0-3.6.75,9.35,9.35,0,0,0-4.92,4.92,8.85,8.85,0,0,0-.75,3.6v22a4.64,4.64,0,0,1-1.2,3.23,4.9,4.9,0,0,1-6.7,0,4.63,4.63,0,0,1-1.2-3.23v-22a8.87,8.87,0,0,0-.75-3.6,9.34,9.34,0,0,0-4.92-4.92,8.86,8.86,0,0,0-3.6-.75,9.05,9.05,0,0,0-3.68.75,9.52,9.52,0,0,0-2.94,2,9,9,0,0,0-1.94,2.94,9.29,9.29,0,0,0-.7,3.6v22a4.63,4.63,0,0,1-1.2,3.23,4.9,4.9,0,0,1-6.7,0,4.63,4.63,0,0,1-1.2-3.23V74.3A16.58,16.58,0,0,1,426,62a18,18,0,0,1,5.75-3.6,19,19,0,0,1,7-1.28A19.47,19.47,0,0,1,448,59.2a16.25,16.25,0,0,1,6.37,6.08,1,1,0,0,0,1.08.58,1.45,1.45,0,0,0,1.08-.41,1.35,1.35,0,0,0,.41-1,1.47,1.47,0,0,0-.17-.66,16,16,0,0,0-1.08-1.57,1.34,1.34,0,0,1-.25-.83.94.94,0,0,1,.21-.54,3.54,3.54,0,0,1,.37-.46A13.49,13.49,0,0,1,461,58a22.23,22.23,0,0,1,6-.87,19,19,0,0,1,7,1.28,18,18,0,0,1,5.75,3.6A16.58,16.58,0,0,1,485,74.3Z"/></g></g></svg>